<?xml version="1.0" encoding="utf-8"?>
<!-- Generator: Adobe Illustrator 26.3.1, SVG Export Plug-In . SVG Version: 6.00 Build 0)  -->
<svg version="1.1" id="Layer_1" xmlns="http://www.w3.org/2000/svg" xmlns:xlink="http://www.w3.org/1999/xlink" x="0px" y="0px"
	 viewBox="0 0 1920 1920" style="enable-background:new 0 0 1920 1920;" xml:space="preserve">
<g id="Layer_2_00000177443050083811949560000014839089087782866067_">
	
		<path id="Arm_00000164504977569757240790000018196698075452906134_" style="fill:#3A8745;stroke:#006837;stroke-width:10;stroke-linecap:round;stroke-linejoin:round;stroke-miterlimit:10;" d="
		M948.3041,699.2939c0.1737,7.2623,1.3978,18.2137,6.7831,30.6304c4.0147,9.2653,7.6534,17.6426,14.5165,18.9057
		c11.546,2.1188,19.097-18.3102,28.2707-17.7638c16.379,0.9742,35.0091,68.6969,32.4472,159.1507
		c-2.6007,91.5862-25.8475,168.4293-15.7562,170.8572c6.3502,1.5183,19.4907-27.8903,26.3007-25.9403
		c8.8307,2.5265-5.8589,54.1483,3.089,56.7021c7.5839,2.1569,24.8176-32.9202,32.4878-30.6726
		c7.6989,2.257-3.1621,39.5002,3.855,41.5905c5.4056,1.6134,19.0328-18.4044,27.9464-34.9388
		c37.354-69.2989,33.2869-154.0386,26.1957-212.7325c-5.7555-47.6645-17.4961-111.2688-43.0505-184.928"/>
	
		<path id="BG_Leg" style="fill:#3A8745;stroke:#006837;stroke-width:10;stroke-linecap:round;stroke-linejoin:round;stroke-miterlimit:10;" d="
		M939.5918,1012.6987c-16.9424-36.0093-14.7125-77.7435,7.6112-114.8132c16.033-26.6238,39.589-46.6923,66.9833-55.2408
		c72.0484-22.4865,132.0139,26.0909,159.6017,69.0533c20.0386,31.2073,33.9824,83.5352,38.0049,154.2638
		c4.8335,85.0676-7.3009,91.3798,0.2816,157.09c7.4199,64.3427,12.3185,76.9368,17.5248,135.4624
		c5.8636,65.9513-10.8966,88.4543,2.9299,137.7856c5.9078,21.0889,15.5056,57.5223,61.2058,76.1008
		c47.2467,19.2162,114.1976,2.8917,115.7567,13.3845c0.7428,4.9677-43.8213,12.2552-42.2909,18.8196
		c1.7999,7.7233,53.8054,5.9845,53.301,9.5917c-0.4722,3.3848-58.8584,12.6486-60.0969,17.1887
		c-1.2924,4.757,58.0687-1.0667,57.8363,3.8939c-0.4005,8.6052-63.9055,29.3846-119.8557,20.2729
		c-54.0364-8.8021-82.9762-42.5571-116.1238-82.5229c-65.0914-78.4901-82.368-159.9532-87.9199-195.4783
		c-13.4634-86.1287,13.0388-87.7657-7.653-143.2769c-22.4429-60.2225-59.5479-74.1866-111.9362-157.3638
		C959.9416,1053.3561,948.4292,1031.4923,939.5918,1012.6987z"/>
	<path style="fill:#3A8745;stroke:#006837;stroke-width:10;stroke-linecap:round;stroke-linejoin:round;stroke-miterlimit:10;" d="
		M1132.62,191.02c6.37-3.96,46.99-10.49,60.62-4.75c22.58,9.51,28,29.78,33.28,61.81"/>
	<ellipse style="fill:#67A764;" cx="1055.95" cy="562.48" rx="70.73" ry="16.05"/>
	<g id="Body">
		<path style="fill:#67A764;stroke:#006837;stroke-width:10;stroke-linecap:round;stroke-linejoin:round;stroke-miterlimit:10;" d="
			M981.88,563.67c10.38-4.33,26.32-10,46.36-13.08c31.12-4.78,54.36-0.6,76.0699,2.38c25.66,3.52,68.55,9.4,106.98,7.13
			c24.65-1.46,99.65-5.89,139.0699-58.24c6.5699-8.72,23.53-31.25,20.21-58.24c-1.59-12.93-7.22-21.84-32.09-55.87
			c-30.41-41.6-38.04-51.11-38.04-51.11c-75.96-94.75-82.73-101.24-90.34-106.98c-28.2-21.29-49.08-23.2-70.73-31.5l14.26,29.48
			c-2.83-9.25-13.63-40.43-45.14-59.47c-4.15-2.51-21.5601-12.6-46.3-13.99c-33.26-1.88-61.36,6.48-85.68,24.97
			c-29.72,22.58-46.36,42.79-105.79,85.58c-9.59-9.11-22.58-14.26-36.85-14.26c-29.54,0-53.49,23.95-53.49,53.49
			c0,9.68,1.45,23.07,5.94,30.91l-0.59,0.14c-11.28-11.1-26.86-17.97-44.07-17.97c-34.42,0-62.32,27.47-62.32,61.35
			c0,23.3,12.67,43.56,32.09,53.95l0.12,0.54c-8.2-3.41-17.21-5.3-26.68-5.3c-37.85,0-68.54,30.18-68.54,67.42
			c0,25.08,13.81,46.97,34.47,58.58l0.45,1.36c-6.43-1.66-13.19-2.54-20.15-2.54c-43.61,0-78.96,34.68-78.96,77.45
			c0,37.43,27.07,68.67,63.06,75.88l-1.29,0.14c-33.82,2.26-60.58,31.67-60.58,67.62c0,37.42,30.91,68.94,76.07,68.94l1.27,0.55
			c-21.09,9.67-35.74,31.02-35.74,55.8c0,33.87,27.37,61.33,61.14,61.33c8.23,0,16.09-1.63,23.26-4.59l0.37,0.03
			c-11.79,9.13-19.65,23.49-20.28,39.9c-1.1,28.83,20.57,53.07,48.4,54.1299c13.92,0.53,32.16-1.91,41.64-11.01l-0.01-0.24
			c45.82,39.09,110.69,79.88,194.95,79.88c98.66,0,191.3701-24.96,243.68-130.75c40.02-80.94,31.66-128.53-4.75-197.32
			c-53.49-101.04-90.34-116.49-91.53-137.88c-0.41-7.3,1.01-28.54,16.64-42.79c10.66-9.71,23.8101-17.93,49.92-11.89
			c39.91,9.24,58.83-23.02,53.49-36.85"/>
	</g>
	
		<ellipse transform="matrix(0.1602 -0.9871 0.9871 0.1602 597.4448 1248.3121)" style="fill:#EACB00;stroke:#F7931E;stroke-width:10;stroke-linecap:round;stroke-miterlimit:10;" cx="1032.33" cy="273.05" rx="70.57" ry="70.57"/>
	
		<ellipse style="fill:#42210B;stroke:#42210B;stroke-width:8;stroke-linecap:round;stroke-miterlimit:10;" cx="1033.64" cy="274.36" rx="40.51" ry="14.38"/>
	<path style="fill:none;stroke:#006837;stroke-width:10;stroke-linecap:round;stroke-miterlimit:10;" d="M997.12,593.98
		c-32.83,19.78-70.73-27.53-33.28-54.68"/>
	
		<path id="FG_Leg_00000163034737420916978440000013004614799900275613_" style="fill:#67A764;stroke:#006837;stroke-width:10;stroke-linecap:round;stroke-linejoin:round;stroke-miterlimit:10;" d="
		M1020.9429,968.0484c3.6578,38.4674-8.5831,93.8742-38.9716,161.8538c-36.5591,81.7644-50.9535,82.0363-75.6023,146.9724
		c-24.1314,63.5939-25.6466,77.6429-49.0386,134.7604c-26.3691,64.3699-52.8962,77.6217-63.7982,130.1627
		c-4.6529,22.4531-13.2888,60.9703,20.4475,99.5637c34.8824,39.8973,105.3336,55.7227,101.7156,66.2637
		c-1.713,4.984-46.8637-8.89-48.611-2.0431c-2.0515,8.0502,47.3904,30.5731,45.1761,33.7144
		c-2.0789,2.9349-61.1168-15.5065-64.4641-11.8372c-3.5079,3.8502,54.7773,25.9653,52.1688,30.4952
		c-4.5268,7.8665-73.9214-2.1979-121.8041-36.6963c-46.2411-33.3151-56.9962-78.314-68.6661-131.057
		c-22.9216-103.5894,0.2681-187.7683,12.2325-223.5515c29.017-86.7644,54.5665-75.9928,62.0397-137.4919
		c8.1096-66.7096-19.822-97-28.6219-199.0793c-2.4943-28.8927-2.6799-54.6733-1.869-76.3509
		c1.5643-41.5278,0.3467-47.0569,16.0002-86.7749"/>
	<path id="Nostril" style="fill:none;stroke:#006837;stroke-width:10;stroke-linecap:round;stroke-miterlimit:10;" d="
		M1264.5699,450.15c11.89,0,24.96,8.32,29.72,15.45"/>
	
		<path id="Arm" style="fill:#67A764;stroke:#006837;stroke-width:10;stroke-linecap:round;stroke-linejoin:round;stroke-miterlimit:10;" d="
		M780.4445,747.5968c4.3406,5.8196,11.6809,14.0453,23.2529,21.0615c8.6366,5.2328,16.4489,9.9705,22.7766,7.0252
		c10.6432-4.955,4.9915-25.9747,12.7893-30.8386c13.9278-8.679,68.2919,35.7943,118.5119,111.06
		c50.8571,76.2115,76.3322,152.3519,85.9727,148.4849c6.0529-2.427-0.222-34.0241,6.4506-36.3712
		c8.6685-3.0475,26.5391,47.5674,35.3142,44.464c7.4304-2.6274,1.2037-41.2117,8.7668-43.8169
		c7.5885-2.6213,20.2759,34.0468,27.2008,31.7053c5.3433-1.8099,4.8788-26.0215,2.5878-44.6635
		c-9.6083-78.1361-61.9426-144.9114-101.677-188.686c-32.2639-35.5486-78.6274-80.6536-142.0729-125.9529"/>
	
		<path id="Nostril_00000041981766208669398690000011905696832833574567_" style="fill:none;stroke:#006837;stroke-width:10;stroke-linecap:round;stroke-miterlimit:10;" d="
		M1297.85,427.53c9.51,0,19.97,7.7,23.77,14.3"/>
	<circle style="fill:#FFFFFF;" cx="1048.8199" cy="258.18" r="14.86"/>
	<ellipse style="fill:#009245;" cx="893.7" cy="429.94" rx="60.62" ry="30.91"/>
</g>
</svg>
