<?xml version="1.0" encoding="utf-8"?>
<!-- Generator: Adobe Illustrator 26.3.1, SVG Export Plug-In . SVG Version: 6.00 Build 0)  -->
<svg version="1.1" id="Layer_1" xmlns="http://www.w3.org/2000/svg" xmlns:xlink="http://www.w3.org/1999/xlink" x="0px" y="0px"
	 viewBox="0 0 1920 1920" style="enable-background:new 0 0 1920 1920;" xml:space="preserve">
<g id="Layer_2_00000078006868466161851020000011032368072717309854_">
	
		<path id="Arm_00000164504977569757240790000018196698075452906134_" style="fill:#3A8745;stroke:#006837;stroke-width:10;stroke-linecap:round;stroke-linejoin:round;stroke-miterlimit:10;" d="
		M968.51,735.34c2.39,6.86,6.91,16.91,15.84,27.08c6.66,7.59,12.69,14.45,19.61,13.55c11.64-1.52,12.57-23.28,21.47-25.57
		c15.89-4.09,54.37,54.67,79.64,141.56c25.58,87.98,26.99,168.2499,37.34,167.47c6.51-0.5,10.01-32.52,17.09-32.75
		c9.1801-0.3,11.01,53.34,20.3101,53.03c7.88-0.27,13.54-38.9399,21.53-39.15c8.02-0.21,9.09,38.5699,16.41,38.41
		c5.64-0.12,12.48-23.35,15.9-41.8199c14.33-77.41-15.5-156.83-40.23-210.53c-20.08-43.61-50.74-100.56-97.63-162.85"/>
	
		<path id="BG_Leg" style="fill:#3A8745;stroke:#006837;stroke-width:10;stroke-linecap:round;stroke-linejoin:round;stroke-miterlimit:10;" d="
		M912.32,972.7c-8.67-38.84,2.62-79.08,32.5-110.38c21.46-22.48,48.83-36.92,77.43-39.28c75.22-6.21,123.13,54.29,140.67,102.24
		c12.74,34.83,14.92,88.94,3.4,158.84c-13.86,84.0699-27.08,87.58-34.03,153.36c-6.8101,64.41-4.78,77.77-12.48,136.02
		c-8.6801,65.64-29.95,83.9399-27.23,135.1c1.16,21.87,2.5699,59.52,43.11,87.63c41.91,29.0699,110.8099,27.76,110.04,38.34
		c-0.36,5.01-45.4399,2.39-45.38,9.13c0.0699,7.9301,51.2,17.59,49.92,21c-1.2,3.2-60.2-0.51-62.4,3.65
		c-2.3,4.36,56.9,11.64,55.59,16.4301c-2.27,8.3101-68.78,14.72-121.39-6.39c-50.8101-20.39-71.6801-59.65-95.3-105.89
		c-46.38-90.8101-45.45-174.08-43.11-209.96c5.67-86.99,31.89-82.8,23.82-141.49c-8.75-63.67-41.91-85.4-74.87-178.01
		C923.3,1016.82,916.84,992.97,912.32,972.7z"/>
	<path style="fill:#3A8745;stroke:#006837;stroke-width:10;stroke-linecap:round;stroke-linejoin:round;stroke-miterlimit:10;" d="
		M1132.62,191.02c6.37-3.96,46.99-10.49,60.62-4.75c22.58,9.51,28,29.78,33.28,61.81"/>
	<ellipse style="fill:#67A764;" cx="1055.95" cy="562.48" rx="70.73" ry="16.05"/>
	<g id="Body">
		<path style="fill:#67A764;stroke:#006837;stroke-width:10;stroke-linecap:round;stroke-linejoin:round;stroke-miterlimit:10;" d="
			M981.88,563.67c10.38-4.33,26.32-10,46.36-13.08c31.12-4.78,54.36-0.6,76.0699,2.38c25.66,3.52,68.55,9.4,106.98,7.13
			c24.65-1.46,99.65-5.89,139.0699-58.24c6.5699-8.72,23.53-31.25,20.21-58.24c-1.59-12.93-7.22-21.84-32.09-55.87
			c-30.41-41.6-38.04-51.11-38.04-51.11c-75.96-94.75-82.73-101.24-90.34-106.98c-28.2-21.29-49.08-23.2-70.73-31.5l14.26,29.48
			c-2.83-9.25-13.63-40.43-45.14-59.47c-4.15-2.51-21.5601-12.6-46.3-13.99c-33.26-1.88-61.36,6.48-85.68,24.97
			c-29.72,22.58-46.36,42.79-105.79,85.58c-9.59-9.11-22.58-14.26-36.85-14.26c-29.54,0-53.49,23.95-53.49,53.49
			c0,9.68,1.45,23.07,5.94,30.91l-0.59,0.14c-11.28-11.1-26.86-17.97-44.07-17.97c-34.42,0-62.32,27.47-62.32,61.35
			c0,23.3,12.67,43.56,32.09,53.95l0.12,0.54c-8.2-3.41-17.21-5.3-26.68-5.3c-37.85,0-68.54,30.18-68.54,67.42
			c0,25.08,13.81,46.97,34.47,58.58l0.45,1.36c-6.43-1.66-13.19-2.54-20.15-2.54c-43.61,0-78.96,34.68-78.96,77.45
			c0,37.43,27.07,68.67,63.06,75.88l-1.29,0.14c-33.82,2.26-60.58,31.67-60.58,67.62c0,37.42,30.91,68.94,76.07,68.94l1.27,0.55
			c-21.09,9.67-35.74,31.02-35.74,55.8c0,33.87,27.37,61.33,61.14,61.33c8.23,0,16.09-1.63,23.26-4.59l0.37,0.03
			c-11.79,9.13-19.65,23.49-20.28,39.9c-1.1,28.83,20.57,53.07,48.4,54.1299c13.92,0.53,32.16-1.91,41.64-11.01l-0.01-0.24
			c45.82,39.09,110.69,79.88,194.95,79.88c98.66,0,191.3701-24.96,243.68-130.75c40.02-80.94,31.66-128.53-4.75-197.32
			c-53.49-101.04-90.34-116.49-91.53-137.88c-0.41-7.3,1.01-28.54,16.64-42.79c10.66-9.71,23.8101-17.93,49.92-11.89
			c39.91,9.24,58.83-23.02,53.49-36.85"/>
	</g>
	
		<ellipse transform="matrix(0.1602 -0.9871 0.9871 0.1602 597.4448 1248.3121)" style="fill:#EACB00;stroke:#F7931E;stroke-width:10;stroke-linecap:round;stroke-miterlimit:10;" cx="1032.33" cy="273.05" rx="70.57" ry="70.57"/>
	
		<ellipse style="fill:#42210B;stroke:#42210B;stroke-width:8;stroke-linecap:round;stroke-miterlimit:10;" cx="1033.64" cy="274.36" rx="40.51" ry="14.38"/>
	<path style="fill:none;stroke:#006837;stroke-width:10;stroke-linecap:round;stroke-miterlimit:10;" d="M997.12,593.98
		c-32.83,19.78-70.73-27.53-33.28-54.68"/>
	
		<path id="FG_Leg_00000163034737420916978440000013004614799900275613_" style="fill:#67A764;stroke:#006837;stroke-width:10;stroke-linecap:round;stroke-linejoin:round;stroke-miterlimit:10;" d="
		M1012.19,961.22c11.5,36.89,10.93,93.63-4.81,166.41c-18.94,87.54-32.97,90.77-43.72,159.39c-10.52,67.2-9.11,81.26-20.24,141.97
		c-12.55,68.42-35.78,86.85-35.63,140.51c0.07,22.9301-0.45,62.4,40.51,93.22c42.35,31.86,114.55,32.84,113.1801,43.9
		c-0.65,5.23-47.69,0.95-47.99,8.01c-0.35,8.3,52.67,20.16,51.15,23.6899c-1.4301,3.3-63-2.59-65.52,1.6899
		c-2.64,4.49,58.95,14.13,57.33,19.1c-2.8101,8.63-72.79,13.0699-126.75-10.83c-52.11-23.08-71.9-64.9-94.18-114.11
		c-43.76-96.65-38.4-183.8-34.06-221.28c10.53-90.88,37.75-85.6,32.4-147.3201c-5.8-66.95-39.37-90.84-69-188.92
		c-8.39-27.76-13.88-52.95-17.55-74.33c-7.02-40.96-9.35-46.12-2.21-88.21"/>
	<path id="Nostril" style="fill:none;stroke:#006837;stroke-width:10;stroke-linecap:round;stroke-miterlimit:10;" d="
		M1264.5699,450.15c11.89,0,24.96,8.32,29.72,15.45"/>
	
		<path id="Arm" style="fill:#67A764;stroke:#006837;stroke-width:10;stroke-linecap:round;stroke-linejoin:round;stroke-miterlimit:10;" d="
		M759.38,733.69c0.54,7.24,2.32,18.12,8.32,30.25c4.48,9.05,8.53,17.24,15.45,18.15c11.64,1.53,18.15-19.24,27.34-19.16
		c16.41,0.15,38.42,66.85,40.41,157.31c2.02,91.6-17.34,169.52-7.13,171.43c6.41,1.2,18.07-28.83,24.96-27.23
		c8.95,2.08-3.13,54.38,5.94,56.47c7.68,1.77,23.13-34.13,30.91-32.27c7.81,1.86-1.16,39.61,5.94,41.35
		c5.48,1.34,18.08-19.34,26.15-36.3c33.82-71.09,25.49-155.52,15.45-213.78c-8.15-47.31-23.07-110.25-52.3-182.52"/>
	
		<path id="Nostril_00000041981766208669398690000011905696832833574567_" style="fill:none;stroke:#006837;stroke-width:10;stroke-linecap:round;stroke-miterlimit:10;" d="
		M1297.85,427.53c9.51,0,19.97,7.7,23.77,14.3"/>
	<circle style="fill:#FFFFFF;" cx="1048.8199" cy="258.18" r="14.86"/>
	<ellipse style="fill:#009245;" cx="893.7" cy="429.94" rx="60.62" ry="30.91"/>
</g>
</svg>
