<?xml version="1.0" encoding="utf-8"?>
<!-- Generator: Adobe Illustrator 26.3.1, SVG Export Plug-In . SVG Version: 6.00 Build 0)  -->
<svg version="1.1" id="Layer_1" xmlns="http://www.w3.org/2000/svg" xmlns:xlink="http://www.w3.org/1999/xlink" x="0px" y="0px"
	 viewBox="0 0 1920 1920" style="enable-background:new 0 0 1920 1920;" xml:space="preserve">
<g id="Layer_2_00000099623558590769621670000007575061453372860604_">
	
		<path id="Arm_00000164504977569757240790000018196698075452906134_" style="fill:#3A8745;stroke:#006837;stroke-width:10;stroke-linecap:round;stroke-linejoin:round;stroke-miterlimit:10;" d="
		M975.23,748.63c3.81,6.19,10.37,15.04,21.27,23.06c8.13,5.99,15.49,11.4,22.06,9.04c11.04-3.97,7.3-25.43,15.5001-29.57
		c14.65-7.4,64.8101,41.77,108.08,121.24c43.8101,80.47,62.36,158.58,72.3099,155.6c6.25-1.88,2.83-33.91,9.6899-35.64
		c8.9-2.25,22.16,49.75,31.1899,47.45c7.64-1.95,4.9-40.93,12.66-42.85c7.79-1.93,17.13,35.73,24.25,34.01
		c5.48-1.3199,7.1899-25.48,6.58-44.25c-2.5601-78.68-48.7-149.88-84.34-197.05c-28.9399-38.3-71.08-87.38-130.2-138.19"/>
	
		<path id="BG_Leg" style="fill:#3A8745;stroke:#006837;stroke-width:10;stroke-linecap:round;stroke-linejoin:round;stroke-miterlimit:10;" d="
		M900.92,930.37c5.27-39.45,29.75-73.32,68.59-92.38c27.9-13.69,58.5699-17.8,86.23-10.15c72.75,20.12,96.83,93.45,96.75,144.5
		c-0.0601,37.08-16.6801,88.63-51.61,150.26c-42.01,74.12-55.64,72.86-84.86,132.2c-28.61,58.1-31.32,71.35-58.65,123.36
		c-30.79,58.62-57.08,68.45-72.17,117.41c-6.45,20.92-18.13,56.75,10.22,97.13c29.31,41.75,94.43,64.29,90.05,73.96
		c-2.07,4.58-43.47-13.4301-45.74-7.09c-2.67,7.47,41.99,34.17,39.61,36.9301c-2.23,2.58-56.33-21.25-59.82-18.1
		c-3.66,3.3,49.38,30.5601,46.5,34.6c-5,7.02-69.64-9.91-111.73-47.88c-40.65-36.67-46.69-80.72-52.9-132.27
		c-12.19-101.23,17.41-179.08,31.99-211.9401c35.34-79.6899,58.5-66.71,71.18-124.58c13.76-62.78-9.87-94.61-8.85-192.91
		C896,975.57,898.17,950.97,900.92,930.37z"/>
	<path style="fill:#3A8745;stroke:#006837;stroke-width:10;stroke-linecap:round;stroke-linejoin:round;stroke-miterlimit:10;" d="
		M1132.62,191.02c6.37-3.96,46.99-10.49,60.62-4.75c22.58,9.51,28,29.78,33.28,61.81"/>
	<ellipse style="fill:#67A764;" cx="1055.95" cy="562.48" rx="70.73" ry="16.05"/>
	<g id="Body">
		<path style="fill:#67A764;stroke:#006837;stroke-width:10;stroke-linecap:round;stroke-linejoin:round;stroke-miterlimit:10;" d="
			M981.88,563.67c10.38-4.33,26.32-10,46.36-13.08c31.12-4.78,54.36-0.6,76.0699,2.38c25.66,3.52,68.55,9.4,106.98,7.13
			c24.65-1.46,99.65-5.89,139.0699-58.24c6.5699-8.72,23.53-31.25,20.21-58.24c-1.59-12.93-7.22-21.84-32.09-55.87
			c-30.41-41.6-38.04-51.11-38.04-51.11c-75.96-94.75-82.73-101.24-90.34-106.98c-28.2-21.29-49.08-23.2-70.73-31.5l14.26,29.48
			c-2.83-9.25-13.63-40.43-45.14-59.47c-4.15-2.51-21.5601-12.6-46.3-13.99c-33.26-1.88-61.36,6.48-85.68,24.97
			c-29.72,22.58-46.36,42.79-105.79,85.58c-9.59-9.11-22.58-14.26-36.85-14.26c-29.54,0-53.49,23.95-53.49,53.49
			c0,9.68,1.45,23.07,5.94,30.91l-0.59,0.14c-11.28-11.1-26.86-17.97-44.07-17.97c-34.42,0-62.32,27.47-62.32,61.35
			c0,23.3,12.67,43.56,32.09,53.95l0.12,0.54c-8.2-3.41-17.21-5.3-26.68-5.3c-37.85,0-68.54,30.18-68.54,67.42
			c0,25.08,13.81,46.97,34.47,58.58l0.45,1.36c-6.43-1.66-13.19-2.54-20.15-2.54c-43.61,0-78.96,34.68-78.96,77.45
			c0,37.43,27.07,68.67,63.06,75.88l-1.29,0.14c-33.82,2.26-60.58,31.67-60.58,67.62c0,37.42,30.91,68.94,76.07,68.94l1.27,0.55
			c-21.09,9.67-35.74,31.02-35.74,55.8c0,33.87,27.37,61.33,61.14,61.33c8.23,0,16.09-1.63,23.26-4.59l0.37,0.03
			c-11.79,9.13-19.65,23.49-20.28,39.9c-1.1,28.83,20.57,53.07,48.4,54.1299c13.92,0.53,32.16-1.91,41.64-11.01l-0.01-0.24
			c45.82,39.09,110.69,79.88,194.95,79.88c98.66,0,191.3701-24.96,243.68-130.75c40.02-80.94,31.66-128.53-4.75-197.32
			c-53.49-101.04-90.34-116.49-91.53-137.88c-0.41-7.3,1.01-28.54,16.64-42.79c10.66-9.71,23.8101-17.93,49.92-11.89
			c39.91,9.24,58.83-23.02,53.49-36.85"/>
	</g>
	
		<ellipse transform="matrix(0.1602 -0.9871 0.9871 0.1602 597.4448 1248.3121)" style="fill:#EACB00;stroke:#F7931E;stroke-width:10;stroke-linecap:round;stroke-miterlimit:10;" cx="1032.33" cy="273.05" rx="70.57" ry="70.57"/>
	
		<ellipse style="fill:#42210B;stroke:#42210B;stroke-width:8;stroke-linecap:round;stroke-miterlimit:10;" cx="1033.64" cy="274.36" rx="40.51" ry="14.38"/>
	<path style="fill:none;stroke:#006837;stroke-width:10;stroke-linecap:round;stroke-miterlimit:10;" d="M997.12,593.98
		c-32.83,19.78-70.73-27.53-33.28-54.68"/>
	
		<path id="FG_Leg_00000163034737420916978440000013004614799900275613_" style="fill:#67A764;stroke:#006837;stroke-width:10;stroke-linecap:round;stroke-linejoin:round;stroke-miterlimit:10;" d="
		M1001.79,933.47c23.11,30.98,41.42,84.67,50.7599,158.55c11.22,88.86-0.9399,96.5699,11.73,164.86
		c12.4,66.88,18.41,79.67,28.09,140.63c10.9,68.71-4.89,93.8101,13.09,144.37c7.6801,21.61,20.3101,59,69.1801,74.46
		c50.53,15.98,118.95-7.09,121.34,3.79c1.13,5.15-44.67,16.75-42.6,23.5c2.4301,7.95,56.38,1.51,56.11,5.34
		c-0.25,3.59-60.28,18.49-61.23,23.37c-1,5.11,60.3-6.26,60.42-1.04c0.21,9.0699-64.3101,36.51-123.14,31.9
		c-56.8199-4.45-89.37-37.3199-126.75-76.33c-73.39-76.62-97.3-160.6-105.65-197.39c-20.27-89.21,7.17-93.28-18.39-149.71
		c-27.72-61.22-67.32-72.59-127.85-155.25c-17.14-23.4-30.69-45.33-41.25-64.28c-20.24-36.3-24.14-40.39-31.4-82.46"/>
	<path id="Nostril" style="fill:none;stroke:#006837;stroke-width:10;stroke-linecap:round;stroke-miterlimit:10;" d="
		M1264.5699,450.15c11.89,0,24.96,8.32,29.72,15.45"/>
	
		<path id="Arm" style="fill:#67A764;stroke:#006837;stroke-width:10;stroke-linecap:round;stroke-linejoin:round;stroke-miterlimit:10;" d="
		M750.64,690.45c-2.72,6.73-5.95,17.27-5.95,30.81c0.01,10.1,0.01,19.24,5.81,23.12c9.75,6.53,24.8-9.21,33-5.06
		c14.65,7.4,4.83,76.95-33.48,158.93c-38.78,83.01-90.66,144.29-82.35,150.52c5.22,3.92,28.97-17.84,34.44-13.35
		c7.1,5.83-26.9,47.36-19.69,53.26c6.1,4.99,35.85-20.35,42-15.23c6.17,5.13-18.59,34.99-12.99,39.7
		c4.32,3.63,24.78-9.33,39.53-20.96c61.82-48.74,91.76-128.12,108.58-184.8c13.66-46.02,28.17-109.06,33.99-186.8"/>
	
		<path id="Nostril_00000041981766208669398690000011905696832833574567_" style="fill:none;stroke:#006837;stroke-width:10;stroke-linecap:round;stroke-miterlimit:10;" d="
		M1297.85,427.53c9.51,0,19.97,7.7,23.77,14.3"/>
	<circle style="fill:#FFFFFF;" cx="1048.8199" cy="258.18" r="14.86"/>
	<ellipse style="fill:#009245;" cx="893.7" cy="429.94" rx="60.62" ry="30.91"/>
</g>
</svg>
