<?xml version="1.0" encoding="utf-8"?>
<!-- Generator: Adobe Illustrator 26.3.1, SVG Export Plug-In . SVG Version: 6.00 Build 0)  -->
<svg version="1.1" id="Layer_1" xmlns="http://www.w3.org/2000/svg" xmlns:xlink="http://www.w3.org/1999/xlink" x="0px" y="0px"
	 viewBox="0 0 1920 1920" style="enable-background:new 0 0 1920 1920;" xml:space="preserve">
<g id="Layer_2_00000177443050083811949560000014839089087782866067_">
	
		<path id="Arm_00000164504977569757240790000018196698075452906134_" style="fill:#3A8745;stroke:#006837;stroke-width:10;stroke-linecap:round;stroke-linejoin:round;stroke-miterlimit:10;" d="
		M881.2562,670.1545c-25.5545,73.6592-37.2951,137.2635-43.0507,184.928c-7.0911,58.694-11.1583,143.4337,26.1958,212.7325
		c8.9135,16.5344,22.5407,36.5522,27.9464,34.9388c7.0172-2.0902-3.8438-39.3335,3.855-41.5905
		c7.6702-2.2476,24.9039,32.8295,32.4878,30.6726c8.9479-2.5538-5.7417-54.1757,3.0889-56.7021
		c6.8101-1.95,19.9505,27.4586,26.3007,25.9403c10.0913-2.428-13.1556-79.271-15.7563-170.8572
		c-2.5618-90.4538,16.0682-158.1765,32.4473-159.1507c9.1736-0.5464,16.7247,19.8826,28.2708,17.7638
		c6.863-1.2631,10.5017-9.6404,14.5164-18.9057c5.3854-12.4167,6.6094-23.3681,6.7831-30.6304"/>
	
		<path id="BG_Leg" style="fill:#3A8745;stroke:#006837;stroke-width:10;stroke-linecap:round;stroke-linejoin:round;stroke-miterlimit:10;" d="
		M997.8928,1076.9102c-52.3884,83.1771-89.4933,97.1412-111.9362,157.3638c-20.6917,55.5111,5.8105,57.1482-7.653,143.2769
		c-5.5518,35.525-22.8284,116.9882-87.9198,195.4783c-33.1477,39.9658-62.0875,73.7208-116.1239,82.5229
		c-55.9501,9.1117-119.4551-11.6677-119.8556-20.2729c-0.2324-4.9606,59.1286,0.863,57.8362-3.8939
		c-1.2385-4.5402-59.6247-13.804-60.0969-17.1887c-0.5043-3.6072,51.5011-1.8684,53.3011-9.5917
		c1.5303-6.5643-43.0338-13.8519-42.291-18.8196c1.5591-10.4928,68.51,5.8317,115.7567-13.3845
		c45.7002-18.5785,55.2979-55.012,61.2059-76.1008c13.8265-49.3313-2.9338-71.8344,2.9299-137.7856
		c5.2064-58.5256,10.1049-71.1198,17.5248-135.4624c7.5825-65.7102-4.5519-72.0223,0.2816-157.09
		c4.0225-70.7286,17.9663-123.0565,38.0049-154.2638c27.5879-42.9624,87.5533-91.5398,159.6017-69.0533
		c27.3943,8.5486,50.9504,28.6171,66.9833,55.2408c22.3237,37.0696,24.5537,78.8039,7.6112,114.8132
		C1024.2163,1031.4923,1012.704,1053.3561,997.8928,1076.9102z"/>
	<path style="fill:#3A8745;stroke:#006837;stroke-width:10;stroke-linecap:round;stroke-linejoin:round;stroke-miterlimit:10;" d="
		M746.1255,248.08c5.28-32.03,10.7001-52.3,33.28-61.81c13.63-5.74,54.25,0.79,60.62,4.75"/>
	<ellipse style="fill:#67A764;" cx="916.6956" cy="562.48" rx="70.73" ry="16.05"/>
	<g id="Body">
		<path style="fill:#67A764;stroke:#006837;stroke-width:10;stroke-linecap:round;stroke-linejoin:round;stroke-miterlimit:10;" d="
			M760.7955,560.7301c-5.34,13.83,13.58,46.09,53.49,36.85c26.11-6.04,39.26,2.18,49.92,11.89c15.63,14.25,17.05,35.49,16.64,42.79
			c-1.1901,21.39-38.04,36.84-91.53,137.88c-36.41,68.79-44.77,116.38-4.75,197.32c52.3099,105.79,145.02,130.75,243.6801,130.75
			c84.26,0,149.13-40.79,194.95-79.88l-0.01,0.24c9.4801,9.1,27.7201,11.54,41.64,11.01c27.8301-1.0599,49.5-25.2999,48.4-54.1299
			c-0.63-16.41-8.49-30.77-20.28-39.9l0.37-0.03c7.17,2.96,15.03,4.59,23.26,4.59c33.77,0,61.14-27.46,61.14-61.33
			c0-24.78-14.6499-46.13-35.74-55.8l1.27-0.55c45.16,0,76.0701-31.52,76.0701-68.94c0-35.95-26.76-65.36-60.5801-67.62
			l-1.2899-0.14c35.99-7.21,63.0599-38.45,63.0599-75.88c0-42.77-35.35-77.45-78.96-77.45c-6.9601,0-13.7201,0.88-20.15,2.54
			l0.45-1.36c20.66-11.61,34.4701-33.5,34.4701-58.58c0-37.24-30.6901-67.42-68.54-67.42c-9.47,0-18.48,1.89-26.6799,5.3l0.12-0.54
			c19.42-10.39,32.09-30.65,32.09-53.95c0-33.88-27.9-61.35-62.3199-61.35c-17.2101,0-32.79,6.87-44.0701,17.97l-0.59-0.14
			c4.49-7.84,5.9399-21.23,5.9399-30.91c0-29.54-23.95-53.49-53.49-53.49c-14.2699,0-27.2599,5.15-36.85,14.26
			c-59.4299-42.79-76.0699-63-105.79-85.58c-24.32-18.49-52.42-26.85-85.68-24.97c-24.74,1.39-42.15,11.48-46.3,13.99
			c-31.51,19.04-42.3101,50.22-45.14,59.47l14.26-29.48c-21.65,8.3-42.53,10.21-70.73,31.5c-7.61,5.74-14.38,12.23-90.34,106.98
			c0,0-7.63,9.51-38.04,51.11c-24.87,34.03-30.5,42.94-32.09,55.87c-3.3201,26.99,13.64,49.52,20.21,58.24
			c39.4199,52.35,114.4199,56.78,139.0699,58.24c38.4299,2.27,81.3199-3.61,106.98-7.13c21.71-2.98,44.95-7.16,76.0699-2.38
			c20.04,3.08,35.98,8.75,46.36,13.08"/>
	</g>
	
		<circle style="fill:#EACB00;stroke:#F7931E;stroke-width:10;stroke-linecap:round;stroke-miterlimit:10;" cx="940.3156" cy="273.05" r="70.57"/>
	
		<ellipse style="fill:#42210B;stroke:#42210B;stroke-width:8;stroke-linecap:round;stroke-miterlimit:10;" cx="939.0055" cy="274.36" rx="40.51" ry="14.38"/>
	<path style="fill:none;stroke:#006837;stroke-width:10;stroke-linecap:round;stroke-miterlimit:10;" d="M1008.8055,539.3
		c37.45,27.15-0.45,74.46-33.28,54.68"/>
	
		<path id="FG_Leg_00000163034737420916978440000013004614799900275613_" style="fill:#67A764;stroke:#006837;stroke-width:10;stroke-linecap:round;stroke-linejoin:round;stroke-miterlimit:10;" d="
		M1203.3691,866.9526c15.6534,39.718,14.4359,45.2471,16.0001,86.7749c0.8109,21.6776,0.6254,47.4582-1.869,76.3509
		c-8.7999,102.0793-36.7316,132.3698-28.6219,199.0793c7.4731,61.4991,33.0227,50.7275,62.0397,137.4919
		c11.9644,35.7832,35.1541,119.9622,12.2324,223.5515c-11.6699,52.743-22.4249,97.7419-68.666,131.057
		c-47.8827,34.4984-117.2773,44.5627-121.8041,36.6963c-2.6086-4.5299,55.6766-26.645,52.1687-30.4952
		c-3.3473-3.6693-62.3851,14.7721-64.464,11.8372c-2.2144-3.1412,47.2275-25.6642,45.176-33.7144
		c-1.7472-6.8469-46.8979,7.0271-48.611,2.0431c-3.6179-10.541,66.8333-26.3663,101.7157-66.2637
		c33.7363-38.5934,25.1003-77.1106,20.4475-99.5637c-10.9021-52.541-37.4292-65.7928-63.7982-130.1627
		c-23.392-57.1174-24.9072-71.1665-49.0386-134.7604c-24.6489-64.9362-39.0432-65.208-75.6024-146.9724
		c-30.3884-67.9796-42.6293-123.3864-38.9716-161.8538"/>
	<path id="Nostril" style="fill:none;stroke:#006837;stroke-width:10;stroke-linecap:round;stroke-miterlimit:10;" d="
		M678.3556,465.6c4.76-7.13,17.83-15.45,29.72-15.45"/>
	
		<path id="Arm" style="fill:#67A764;stroke:#006837;stroke-width:10;stroke-linecap:round;stroke-linejoin:round;stroke-miterlimit:10;" d="
		M1092.3273,641.0687c-63.4454,45.2993-109.809,90.4044-142.0729,125.9529c-39.7344,43.7745-92.0687,110.5499-101.6769,188.686
		c-2.291,18.6419-2.7555,42.8536,2.5877,44.6635c6.9249,2.3416,19.6124-34.3266,27.2008-31.7053
		c7.5631,2.6052,1.3364,41.1895,8.7669,43.8169c8.7751,3.1034,26.6457-47.5115,35.3141-44.464
		c6.6726,2.347,0.3977,33.9442,6.4506,36.3712c9.6406,3.8669,35.1157-72.2734,85.9727-148.4849
		c50.22-75.2657,104.584-119.739,118.5119-111.06c7.7979,4.8638,2.146,25.8836,12.7893,30.8386
		c6.3276,2.9453,14.14-1.7924,22.7766-7.0252c11.572-7.0162,18.9122-15.2419,23.2528-21.0615"/>
	
		<path id="Nostril_00000041981766208669398690000011905696832833574567_" style="fill:none;stroke:#006837;stroke-width:10;stroke-linecap:round;stroke-miterlimit:10;" d="
		M651.0255,441.83c3.8-6.6,14.26-14.3,23.77-14.3"/>
	<circle style="fill:#FFFFFF;" cx="923.8256" cy="258.18" r="14.86"/>
	<ellipse style="fill:#009245;" cx="1078.9456" cy="429.94" rx="60.62" ry="30.91"/>
</g>
</svg>
