<?xml version="1.0" encoding="utf-8"?>
<!-- Generator: Adobe Illustrator 26.3.1, SVG Export Plug-In . SVG Version: 6.00 Build 0)  -->
<svg version="1.1" id="Layer_1" xmlns="http://www.w3.org/2000/svg" xmlns:xlink="http://www.w3.org/1999/xlink" x="0px" y="0px"
	 viewBox="0 0 1920 1920" style="enable-background:new 0 0 1920 1920;" xml:space="preserve">
<g id="Layer_2_00000078006868466161851020000011032368072717309854_">
	
		<path id="Arm_00000164504977569757240790000018196698075452906134_" style="fill:#3A8745;stroke:#006837;stroke-width:10;stroke-linecap:round;stroke-linejoin:round;stroke-miterlimit:10;" d="
		M827.3458,663.7701c-46.89,62.29-77.55,119.24-97.63,162.85c-24.73,53.7-54.5599,133.12-40.23,210.53
		c3.42,18.47,10.26,41.7,15.9,41.8199c7.3201,0.1599,8.39-38.62,16.41-38.41c7.99,0.2101,13.65,38.88,21.53,39.15
		c9.3,0.3099,11.13-53.3301,20.3101-53.03c7.08,0.23,10.58,32.25,17.09,32.75c10.35,0.7799,11.76-79.4901,37.34-167.47
		c25.27-86.89,63.75-145.65,79.64-141.56c8.9,2.29,9.83,24.05,21.47,25.57c6.92,0.9,12.95-5.96,19.61-13.55
		c8.9301-10.17,13.45-20.22,15.84-27.08"/>
	
		<path id="BG_Leg" style="fill:#3A8745;stroke:#006837;stroke-width:10;stroke-linecap:round;stroke-linejoin:round;stroke-miterlimit:10;" d="
		M990.5259,1043.04c-32.96,92.61-66.12,114.34-74.87,178.01c-8.07,58.6899,18.15,54.5,23.82,141.49
		c2.34,35.88,3.27,119.1499-43.11,209.96c-23.62,46.24-44.49,85.5-95.3,105.89c-52.61,21.11-119.12,14.7001-121.39,6.39
		c-1.3101-4.79,57.89-12.0701,55.59-16.4301c-2.2001-4.16-61.2001-0.4501-62.4-3.65c-1.2799-3.41,49.8501-13.0699,49.92-21
		c0.0599-6.74-45.02-4.12-45.38-9.13c-0.7699-10.58,68.13-9.27,110.04-38.34c40.54-28.11,41.95-65.76,43.11-87.63
		c2.72-51.16-18.5499-69.46-27.23-135.1c-7.7-58.25-5.6699-71.61-12.48-136.02c-6.9501-65.78-20.17-69.29-34.03-153.36
		c-11.52-69.9-9.34-124.0099,3.4-158.84c17.54-47.95,65.4501-108.45,140.67-102.24c28.6,2.36,55.97,16.8,77.43,39.28
		c29.88,31.3,41.17,71.54,32.5,110.38C1006.296,992.97,999.836,1016.82,990.5259,1043.04z"/>
	<path style="fill:#3A8745;stroke:#006837;stroke-width:10;stroke-linecap:round;stroke-linejoin:round;stroke-miterlimit:10;" d="
		M696.616,248.08c5.28-32.03,10.7001-52.3,33.28-61.81c13.63-5.74,54.25,0.79,60.62,4.75"/>
	<ellipse style="fill:#67A764;" cx="867.186" cy="562.48" rx="70.73" ry="16.05"/>
	<g id="Body">
		<path style="fill:#67A764;stroke:#006837;stroke-width:10;stroke-linecap:round;stroke-linejoin:round;stroke-miterlimit:10;" d="
			M711.286,560.7301c-5.34,13.83,13.58,46.09,53.49,36.85c26.11-6.04,39.26,2.18,49.92,11.89c15.63,14.25,17.05,35.49,16.64,42.79
			c-1.1901,21.39-38.04,36.84-91.53,137.88c-36.41,68.79-44.77,116.38-4.75,197.32c52.3099,105.79,145.02,130.75,243.68,130.75
			c84.2599,0,149.1299-40.79,194.95-79.88l-0.01,0.24c9.48,9.1,27.72,11.54,41.64,11.01c27.83-1.0599,49.5-25.2999,48.4-54.1299
			c-0.63-16.41-8.4901-30.77-20.28-39.9l0.37-0.03c7.1699,2.96,15.03,4.59,23.26,4.59c33.77,0,61.14-27.46,61.14-61.33
			c0-24.78-14.65-46.13-35.74-55.8l1.27-0.55c45.16,0,76.0699-31.52,76.0699-68.94c0-35.95-26.76-65.36-60.58-67.62l-1.29-0.14
			c35.99-7.21,63.0601-38.45,63.0601-75.88c0-42.77-35.3501-77.45-78.9601-77.45c-6.96,0-13.72,0.88-20.15,2.54l0.4501-1.36
			c20.66-11.61,34.47-33.5,34.47-58.58c0-37.24-30.6899-67.42-68.5399-67.42c-9.47,0-18.48,1.89-26.6801,5.3l0.12-0.54
			c19.42-10.39,32.0901-30.65,32.0901-53.95c0-33.88-27.9-61.35-62.3201-61.35c-17.21,0-32.7899,6.87-44.0699,17.97l-0.5901-0.14
			c4.49-7.84,5.9401-21.23,5.9401-30.91c0-29.54-23.9501-53.49-53.49-53.49c-14.27,0-27.26,5.15-36.85,14.26
			c-59.43-42.79-76.07-63-105.79-85.58c-24.32-18.49-52.42-26.85-85.68-24.97c-24.74,1.39-42.15,11.48-46.3,13.99
			c-31.51,19.04-42.3101,50.22-45.14,59.47l14.26-29.48c-21.65,8.3-42.53,10.21-70.73,31.5c-7.61,5.74-14.38,12.23-90.34,106.98
			c0,0-7.63,9.51-38.04,51.11c-24.87,34.03-30.5,42.94-32.09,55.87c-3.3201,26.99,13.64,49.52,20.21,58.24
			c39.4199,52.35,114.4199,56.78,139.0699,58.24c38.4299,2.27,81.3199-3.61,106.98-7.13c21.71-2.98,44.95-7.16,76.0699-2.38
			c20.04,3.08,35.98,8.75,46.36,13.08"/>
	</g>
	
		<circle style="fill:#EACB00;stroke:#F7931E;stroke-width:10;stroke-linecap:round;stroke-miterlimit:10;" cx="890.806" cy="273.05" r="70.57"/>
	
		<ellipse style="fill:#42210B;stroke:#42210B;stroke-width:8;stroke-linecap:round;stroke-miterlimit:10;" cx="889.496" cy="274.36" rx="40.51" ry="14.38"/>
	<path style="fill:none;stroke:#006837;stroke-width:10;stroke-linecap:round;stroke-miterlimit:10;" d="M959.296,539.3
		c37.45,27.15-0.45,74.46-33.28,54.68"/>
	
		<path id="FG_Leg_00000163034737420916978440000013004614799900275613_" style="fill:#67A764;stroke:#006837;stroke-width:10;stroke-linecap:round;stroke-linejoin:round;stroke-miterlimit:10;" d="
		M1178.0359,914.1097c7.1399,42.09,4.8099,47.25-2.2101,88.21c-3.6699,21.38-9.1599,46.57-17.5499,74.33
		c-29.63,98.0801-63.2001,121.9701-69,188.92c-5.35,61.7201,21.87,56.4401,32.4,147.3201c4.34,37.48,9.7,124.63-34.0601,221.28
		c-22.2799,49.21-42.0699,91.03-94.1799,114.11c-53.96,23.8999-123.9399,19.46-126.75,10.83c-1.62-4.97,59.97-14.61,57.33-19.1
		c-2.52-4.2799-64.09,1.6101-65.52-1.6899c-1.52-3.5299,51.5-15.3899,51.15-23.6899c-0.3-7.0601-47.34-2.78-47.99-8.01
		c-1.37-11.0601,70.8301-12.04,113.1801-43.9c40.96-30.8199,40.44-70.2899,40.51-93.22c0.15-53.66-23.08-72.09-35.63-140.51
		c-11.13-60.71-9.72-74.77-20.24-141.97c-10.75-68.62-24.78-71.85-43.72-159.39c-15.74-72.78-16.31-129.52-4.81-166.41"/>
	<path id="Nostril" style="fill:none;stroke:#006837;stroke-width:10;stroke-linecap:round;stroke-miterlimit:10;" d="
		M628.8461,465.6c4.76-7.13,17.83-15.45,29.72-15.45"/>
	
		<path id="Arm" style="fill:#67A764;stroke:#006837;stroke-width:10;stroke-linecap:round;stroke-linejoin:round;stroke-miterlimit:10;" d="
		M1022.3159,697.3899c-29.23,72.27-44.15,135.21-52.3,182.52c-10.04,58.26-18.37,142.6901,15.45,213.78
		c8.07,16.9601,20.67,37.64,26.15,36.3c7.1-1.74-1.87-39.49,5.94-41.35c7.78-1.86,23.2299,34.04,30.91,32.27
		c9.0699-2.09-3.01-54.39,5.9399-56.47c6.89-1.6,18.55,28.4299,24.9601,27.23c10.21-1.91-9.15-79.83-7.13-171.43
		c1.99-90.46,24-157.16,40.4099-157.31c9.1901-0.08,15.7001,20.69,27.3401,19.16c6.9199-0.91,10.97-9.1,15.45-18.15
		c6-12.13,7.78-23.01,8.3201-30.25"/>
	
		<path id="Nostril_00000041981766208669398690000011905696832833574567_" style="fill:none;stroke:#006837;stroke-width:10;stroke-linecap:round;stroke-miterlimit:10;" d="
		M601.516,441.83c3.8-6.6,14.26-14.3,23.77-14.3"/>
	<circle style="fill:#FFFFFF;" cx="874.316" cy="258.18" r="14.86"/>
	<ellipse style="fill:#009245;" cx="1029.4359" cy="429.94" rx="60.62" ry="30.91"/>
</g>
</svg>
