<?xml version="1.0" encoding="utf-8"?>
<!-- Generator: Adobe Illustrator 26.3.1, SVG Export Plug-In . SVG Version: 6.00 Build 0)  -->
<svg version="1.1" id="Layer_1" xmlns="http://www.w3.org/2000/svg" xmlns:xlink="http://www.w3.org/1999/xlink" x="0px" y="0px"
	 viewBox="0 0 1920 1920" style="enable-background:new 0 0 1920 1920;" xml:space="preserve">
<g id="Layer_2_00000099623558590769621670000007575061453372860604_">
	
		<path id="Arm_00000164504977569757240790000018196698075452906134_" style="fill:#3A8745;stroke:#006837;stroke-width:10;stroke-linecap:round;stroke-linejoin:round;stroke-miterlimit:10;" d="
		M838.8561,651.48c-59.12,50.81-101.26,99.89-130.2,138.19c-35.64,47.17-81.7799,118.37-84.34,197.05
		c-0.61,18.77,1.1,42.9301,6.58,44.25c7.12,1.72,16.46-35.94,24.25-34.01c7.76,1.92,5.02,40.9,12.66,42.85
		c9.0299,2.3,22.2899-49.7,31.1899-47.45c6.86,1.73,3.4399,33.76,9.6899,35.64c9.95,2.98,28.4999-75.13,72.3099-155.6
		c43.2699-79.47,93.4299-128.64,108.08-121.24c8.2001,4.14,4.4601,25.6,15.5001,29.57c6.57,2.36,13.93-3.05,22.06-9.04
		c10.9-8.02,17.46-16.87,21.27-23.06"/>
	
		<path id="BG_Leg" style="fill:#3A8745;stroke:#006837;stroke-width:10;stroke-linecap:round;stroke-linejoin:round;stroke-miterlimit:10;" d="
		M1027.426,1003.4199c1.02,98.3-22.61,130.13-8.85,192.91c12.6799,57.87,35.84,44.89,71.1799,124.58
		c14.5801,32.8601,44.1801,110.7101,31.99,211.9401c-6.21,51.55-12.25,95.6-52.9,132.27c-42.09,37.97-106.7299,54.9-111.7299,47.88
		c-2.88-4.0399,50.16-31.2999,46.5-34.6c-3.49-3.15-57.59,20.6799-59.82,18.1c-2.38-2.76,42.28-29.4601,39.61-36.9301
		c-2.27-6.3401-43.67,11.6699-45.74,7.09c-4.38-9.6699,60.74-32.21,90.0499-73.96c28.35-40.38,16.67-76.21,10.22-97.13
		c-15.0899-48.9601-41.3799-58.79-72.1699-117.41c-27.33-52.01-30.04-65.26-58.65-123.36c-29.22-59.34-42.85-58.08-84.86-132.2
		c-34.9299-61.63-51.5499-113.18-51.61-150.26c-0.08-51.05,24-124.38,96.75-144.5c27.66-7.65,58.33-3.54,86.23,10.15
		c38.84,19.06,63.32,52.93,68.59,92.38C1024.9659,950.97,1027.136,975.57,1027.426,1003.4199z"/>
	<path style="fill:#3A8745;stroke:#006837;stroke-width:10;stroke-linecap:round;stroke-linejoin:round;stroke-miterlimit:10;" d="
		M696.616,248.08c5.28-32.03,10.7001-52.3,33.28-61.81c13.63-5.74,54.25,0.79,60.62,4.75"/>
	<ellipse style="fill:#67A764;" cx="867.186" cy="562.48" rx="70.73" ry="16.05"/>
	<g id="Body">
		<path style="fill:#67A764;stroke:#006837;stroke-width:10;stroke-linecap:round;stroke-linejoin:round;stroke-miterlimit:10;" d="
			M711.286,560.7301c-5.34,13.83,13.58,46.09,53.49,36.85c26.11-6.04,39.26,2.18,49.92,11.89c15.63,14.25,17.05,35.49,16.64,42.79
			c-1.1901,21.39-38.04,36.84-91.53,137.88c-36.41,68.79-44.77,116.38-4.75,197.32c52.3099,105.79,145.02,130.75,243.68,130.75
			c84.2599,0,149.1299-40.79,194.95-79.88l-0.01,0.24c9.48,9.1,27.72,11.54,41.64,11.01c27.83-1.0599,49.5-25.2999,48.4-54.1299
			c-0.63-16.41-8.4901-30.77-20.28-39.9l0.37-0.03c7.1699,2.96,15.03,4.59,23.26,4.59c33.77,0,61.14-27.46,61.14-61.33
			c0-24.78-14.65-46.13-35.74-55.8l1.27-0.55c45.16,0,76.0699-31.52,76.0699-68.94c0-35.95-26.76-65.36-60.58-67.62l-1.29-0.14
			c35.99-7.21,63.0601-38.45,63.0601-75.88c0-42.77-35.3501-77.45-78.9601-77.45c-6.96,0-13.72,0.88-20.15,2.54l0.4501-1.36
			c20.66-11.61,34.47-33.5,34.47-58.58c0-37.24-30.6899-67.42-68.5399-67.42c-9.47,0-18.48,1.89-26.6801,5.3l0.12-0.54
			c19.42-10.39,32.0901-30.65,32.0901-53.95c0-33.88-27.9-61.35-62.3201-61.35c-17.21,0-32.7899,6.87-44.0699,17.97l-0.5901-0.14
			c4.49-7.84,5.9401-21.23,5.9401-30.91c0-29.54-23.9501-53.49-53.49-53.49c-14.27,0-27.26,5.15-36.85,14.26
			c-59.43-42.79-76.07-63-105.79-85.58c-24.32-18.49-52.42-26.85-85.68-24.97c-24.74,1.39-42.15,11.48-46.3,13.99
			c-31.51,19.04-42.3101,50.22-45.14,59.47l14.26-29.48c-21.65,8.3-42.53,10.21-70.73,31.5c-7.61,5.74-14.38,12.23-90.34,106.98
			c0,0-7.63,9.51-38.04,51.11c-24.87,34.03-30.5,42.94-32.09,55.87c-3.3201,26.99,13.64,49.52,20.21,58.24
			c39.4199,52.35,114.4199,56.78,139.0699,58.24c38.4299,2.27,81.3199-3.61,106.98-7.13c21.71-2.98,44.95-7.16,76.0699-2.38
			c20.04,3.08,35.98,8.75,46.36,13.08"/>
	</g>
	
		<circle style="fill:#EACB00;stroke:#F7931E;stroke-width:10;stroke-linecap:round;stroke-miterlimit:10;" cx="890.806" cy="273.05" r="70.57"/>
	
		<ellipse style="fill:#42210B;stroke:#42210B;stroke-width:8;stroke-linecap:round;stroke-miterlimit:10;" cx="889.496" cy="274.36" rx="40.51" ry="14.38"/>
	<path style="fill:none;stroke:#006837;stroke-width:10;stroke-linecap:round;stroke-miterlimit:10;" d="M959.296,539.3
		c37.45,27.15-0.45,74.46-33.28,54.68"/>
	
		<path id="FG_Leg_00000163034737420916978440000013004614799900275613_" style="fill:#67A764;stroke:#006837;stroke-width:10;stroke-linecap:round;stroke-linejoin:round;stroke-miterlimit:10;" d="
		M1188.8861,977.78c-7.26,42.07-11.16,46.16-31.4,82.46c-10.5601,18.9501-24.11,40.88-41.25,64.28
		c-60.53,82.66-100.13,94.03-127.85,155.25c-25.56,56.4299,1.88,60.5-18.39,149.71c-8.35,36.79-32.26,120.77-105.65,197.39
		c-37.38,39.01-69.9301,71.88-126.75,76.33c-58.83,4.61-123.35-22.8301-123.14-31.9c0.12-5.22,61.42,6.15,60.42,1.04
		c-0.95-4.88-60.98-19.78-61.23-23.37c-0.27-3.83,53.6799,2.61,56.11-5.34c2.0701-6.75-43.73-18.35-42.6-23.5
		c2.39-10.88,70.8099,12.1899,121.34-3.79c48.87-15.46,61.5-52.85,69.1801-74.46c17.98-50.5599,2.1899-75.66,13.09-144.37
		c9.6799-60.96,15.6899-73.75,28.09-140.63c12.6699-68.29,0.51-76,11.73-164.86c9.34-73.8801,27.6499-127.5701,50.7599-158.55"/>
	<path id="Nostril" style="fill:none;stroke:#006837;stroke-width:10;stroke-linecap:round;stroke-miterlimit:10;" d="
		M628.8461,465.6c4.76-7.13,17.83-15.45,29.72-15.45"/>
	
		<path id="Arm" style="fill:#67A764;stroke:#006837;stroke-width:10;stroke-linecap:round;stroke-linejoin:round;stroke-miterlimit:10;" d="
		M1029.6058,720.5901c5.8201,77.74,20.3301,140.78,33.99,186.8c16.8201,56.68,46.76,136.06,108.5801,184.8
		c14.75,11.63,35.21,24.59,39.53,20.96c5.6-4.71-19.16-34.5699-12.99-39.7c6.15-5.12,35.9,20.22,42,15.23
		c7.21-5.9-26.79-47.4301-19.6901-53.26c5.4701-4.49,29.2201,17.27,34.4401,13.35c8.3101-6.23-43.5699-67.51-82.35-150.52
		c-38.3101-81.98-48.13-151.53-33.48-158.93c8.2-4.15,23.25,11.59,33,5.06c5.7999-3.88,5.7999-13.02,5.8099-23.12
		c0-13.54-3.23-24.08-5.95-30.81"/>
	
		<path id="Nostril_00000041981766208669398690000011905696832833574567_" style="fill:none;stroke:#006837;stroke-width:10;stroke-linecap:round;stroke-miterlimit:10;" d="
		M601.516,441.83c3.8-6.6,14.26-14.3,23.77-14.3"/>
	<circle style="fill:#FFFFFF;" cx="874.316" cy="258.18" r="14.86"/>
	<ellipse style="fill:#009245;" cx="1029.4359" cy="429.94" rx="60.62" ry="30.91"/>
</g>
</svg>
